<?xml version="1.0" standalone="no"?>
<!DOCTYPE svg PUBLIC "-//W3C//DTD SVG 20010904//EN"
 "http://www.w3.org/TR/2001/REC-SVG-20010904/DTD/svg10.dtd">
<svg version="1.0" xmlns="http://www.w3.org/2000/svg"
 width="500.000000pt" height="500.000000pt" viewBox="0 0 500.000000 500.000000"
 preserveAspectRatio="xMidYMid meet">

<g transform="translate(0.000000,500.000000) scale(0.100000,-0.100000)"
fill="#000000" stroke="none">
<path d="M2644 2936 c-49 -21 -76 -76 -82 -162 -4 -70 -6 -74 -28 -74 -20 0
-24 -5 -24 -32 l0 -31 -23 21 c-76 72 -216 69 -299 -6 l-41 -37 18 34 c17 33
17 35 -1 48 -29 21 -87 16 -128 -12 -35 -24 -36 -24 -36 -4 0 19 -6 20 -72 20
-40 -1 -100 1 -133 4 -50 5 -67 3 -104 -17 -25 -13 -59 -40 -75 -61 -27 -34
-31 -47 -31 -102 0 -56 4 -68 31 -102 16 -21 50 -48 75 -61 37 -20 53 -23 104
-17 33 3 93 6 133 5 l72 -1 0 104 c0 119 12 148 65 149 63 2 72 -7 67 -65 -9
-117 77 -197 212 -197 134 1 236 120 197 231 -14 40 -14 39 4 39 13 0 15 -21
15 -130 l0 -130 60 0 60 0 0 130 0 130 35 0 35 0 0 -130 0 -130 60 0 60 0 0
78 c0 127 10 182 31 182 18 0 19 -10 19 -130 l0 -130 60 0 59 0 3 57 3 57 27
-41 c65 -98 221 -111 311 -26 15 15 27 30 27 33 0 8 -67 40 -84 40 -8 0 -19
-7 -26 -15 -18 -22 -93 -20 -113 3 -10 10 -17 26 -17 35 0 15 15 17 125 17
125 0 125 0 125 24 0 179 -260 241 -355 84 l-20 -33 -3 176 -2 176 -87 6 c-68
5 -94 3 -120 -9 -30 -15 -36 -15 -73 0 -48 19 -75 20 -116 2z m110 -104 c2 -4
2 -36 -1 -70 l-6 -62 -33 0 -34 0 0 51 c0 28 5 59 10 70 11 19 54 27 64 11z
m166 -62 c0 -69 0 -70 -26 -70 -27 0 -27 0 -20 61 7 68 11 79 32 79 11 0 14
-16 14 -70z m-1041 -247 c0 -92 -3 -113 -11 -96 -10 20 -16 22 -50 17 -90 -15
-143 76 -82 141 23 25 30 27 74 22 43 -5 50 -3 55 14 12 37 15 18 14 -98z
m1409 80 l14 -23 -66 0 c-36 0 -66 3 -66 7 0 3 8 15 17 25 23 26 81 21 101 -9z
m-890 -29 c28 -32 28 -66 -2 -100 -48 -57 -136 -26 -136 48 0 82 82 114 138
52z"/>
<path d="M2667 2252 c-10 -10 -17 -26 -17 -35 0 -23 28 -47 53 -46 20 1 20 2
-3 8 -19 5 -25 13 -25 36 0 25 5 31 30 35 25 5 27 7 12 13 -27 10 -32 9 -50
-11z"/>
<path d="M2840 2255 c-10 -12 -10 -18 0 -30 7 -8 19 -15 26 -15 8 0 14 -7 14
-16 0 -12 -6 -15 -26 -10 -17 5 -23 3 -19 -4 8 -13 38 -13 52 1 14 14 6 39
-12 39 -7 0 -18 7 -25 15 -11 13 -8 15 14 15 16 0 25 4 21 10 -9 15 -31 12
-45 -5z"/>
<path d="M3007 2263 c-4 -3 -7 -26 -7 -50 0 -42 1 -43 33 -42 23 1 26 3 10 6
-13 2 -23 11 -23 18 0 7 10 16 23 18 l22 4 -22 8 c-28 9 -30 25 -3 25 11 0 20
5 20 10 0 11 -43 14 -53 3z"/>
<path d="M1947 2213 c15 -42 17 -45 29 -28 8 11 14 24 14 29 1 6 8 -1 16 -16
8 -16 16 -28 18 -28 2 0 11 20 19 45 9 25 12 45 8 45 -5 0 -12 -15 -18 -32
l-9 -33 -16 29 c-15 29 -16 29 -22 8 -10 -29 -22 -28 -30 3 -4 14 -11 25 -16
25 -5 0 -2 -21 7 -47z"/>
<path d="M2162 2215 c-1 -39 1 -45 8 -27 12 28 26 28 40 1 7 -11 14 -18 17
-15 3 3 -1 16 -10 29 -14 22 -14 26 1 41 9 9 11 16 5 16 -6 0 -16 -7 -23 -15
-16 -20 -27 -19 -33 3 -3 9 -5 -5 -5 -33z"/>
<path d="M2340 2227 c0 -54 47 -79 70 -38 13 25 13 71 0 71 -5 0 -10 -15 -10
-34 0 -19 -5 -38 -12 -42 -16 -10 -38 26 -32 53 4 14 2 23 -5 23 -6 0 -11 -15
-11 -33z"/>
<path d="M2330 726 c0 -7 10 -21 23 -30 l22 -17 -28 6 c-19 4 -26 2 -22 -5 8
-14 42 -13 51 1 4 7 -3 20 -17 29 l-23 18 25 5 c23 4 23 4 -3 6 -18 0 -28 -4
-28 -13z"/>
<path d="M2400 705 c0 -19 5 -35 10 -35 6 0 10 16 10 35 0 19 -4 35 -10 35 -5
0 -10 -16 -10 -35z"/>
<path d="M2440 704 c0 -21 4 -33 10 -29 6 3 10 17 10 31 0 37 28 30 33 -8 4
-32 4 -32 5 5 2 35 0 37 -28 37 -28 0 -30 -3 -30 -36z"/>
<path d="M2534 726 c-11 -29 1 -51 29 -54 15 -2 27 1 27 6 0 5 -10 8 -22 8
-33 -1 -31 36 2 45 l25 7 -28 1 c-16 1 -30 -5 -33 -13z"/>
<path d="M2614 726 c-11 -29 1 -51 29 -54 15 -2 27 1 27 6 0 6 -8 8 -19 5 -10
-3 -22 0 -25 6 -5 7 2 11 17 11 30 0 40 10 26 27 -15 17 -48 17 -55 -1z m46
-6 c0 -5 -7 -10 -15 -10 -8 0 -15 5 -15 10 0 6 7 10 15 10 8 0 15 -4 15 -10z"/>
<path d="M2349 624 c-11 -13 -9 -14 14 -9 34 9 35 -5 1 -44 l-26 -31 34 1 c18
1 25 3 16 6 -15 4 -15 6 0 32 26 46 -6 84 -39 45z"/>
<path d="M2436 624 c-30 -30 -8 -90 30 -83 34 7 28 99 -7 99 -4 0 -15 -7 -23
-16z m39 -39 c0 -43 -29 -40 -33 3 -3 28 0 33 15 30 13 -2 18 -12 18 -33z"/>
<path d="M2533 633 c-21 -8 -15 -22 7 -16 13 4 20 0 20 -9 0 -8 -9 -23 -20
-33 -28 -26 -25 -35 13 -34 17 1 24 3 15 6 -22 6 -22 12 -1 35 25 28 0 65 -34
51z"/>
<path d="M2600 630 c0 -5 7 -10 16 -10 14 0 14 -3 4 -15 -10 -12 -10 -15 4
-15 10 0 16 -8 16 -21 0 -16 -5 -20 -20 -16 -11 3 -20 1 -20 -4 0 -5 11 -9 24
-9 28 0 44 33 27 54 -6 8 -9 21 -5 30 5 12 0 16 -20 16 -14 0 -26 -4 -26 -10z"/>
</g>
</svg>
